<?xml version="1.0" encoding="utf-8"?>
<svg fill="#000000" height="800px" width="800px" version="1.1" id="Layer_1" viewBox="0 0 511.998 511.998" xmlns="http://www.w3.org/2000/svg">
  <g>
    <g>
      <path d="M235.561,335.822c-15.536,0-28.138-12.183-28.746-27.641c-0.253-6.419-0.302-12.887-0.119-19.576h-81.239 c3.829-4.03,6.193-9.464,6.193-15.461c0-12.409-10.059-22.468-22.468-22.468h-0.313c15.053-3.356,26.432-16.645,26.728-32.747 c0.347-18.884-14.682-34.475-33.567-34.821c-18.884-0.347-34.475,14.682-34.821,33.566c-0.303,16.526,11.168,30.529,26.694,34.002 H52.657V136.21c0-6.283-5.093-11.376-11.376-11.376H11.376C5.093,124.834,0,129.927,0,136.21l0.199,219.577 c0,7.755,6.288,14.043,14.043,14.043h24.474v8.229c0,5.028,4.076,9.104,9.104,9.104h45.669c5.028,0,9.104-4.076,9.104-9.104 v-8.229H408.25v8.229c0,5.028,4.076,9.104,9.104,9.104h45.669c5.028,0,9.104-4.076,9.104-9.104v-8.229h21.509 c7.755,0,14.043-6.288,14.043-14.043v-20.156C458.447,335.663,252.037,335.822,235.561,335.822z"/>
    </g>
  </g>
  <rect x="62.6" y="180.109" width="91.672" height="70.367" style="fill: rgb(255, 255, 255); stroke: rgba(255, 255, 255, 0);"/>
</svg>